  0
SECTION
  2
BLOCKS
  0
ENDSEC
  0
SECTION
  2
ENTITIES
  0
LINE
  8
0
 10
184
 20
378
 11
0
 21
378
  0
LINE
  8
0
 10
0
 20
378
 11
0
 21
194
  0
LINE
  8
0
 10
0
 20
194
 11
184
 21
194
  0
LINE
  8
0
 10
184
 20
194
 11
184
 21
378
  0
LINE
  8
0
 10
31
 20
235.25
 11
31
 21
336.75
  0
LINE
  8
0
 10
31
 20
336.75
 11
153
 21
336.75
  0
LINE
  8
0
 10
153
 20
336.75
 11
153
 21
235.25
  0
LINE
  8
0
 10
153
 20
235.25
 11
31
 21
235.25
  0
LINE
  8
0
 10
362.5
 20
315
 11
194
 21
315
  0
LINE
  8
0
 10
194
 20
315
 11
194
 21
194
  0
LINE
  8
0
 10
194
 20
194
 11
362.5
 21
194
  0
LINE
  8
0
 10
362.5
 20
194
 11
362.5
 21
315
  0
LINE
  8
0
 10
215.75
 20
205
 11
215.75
 21
245.5
  0
LINE
  8
0
 10
215.75
 20
245.5
 11
220.75
 21
245.5
  0
LINE
  8
0
 10
220.75
 20
245.5
 11
220.75
 21
265.5
  0
LINE
  8
0
 10
220.75
 20
265.5
 11
215.75
 21
265.5
  0
LINE
  8
0
 10
215.75
 20
265.5
 11
215.75
 21
306
  0
LINE
  8
0
 10
215.75
 20
306
 11
267.25
 21
306
  0
LINE
  8
0
 10
267.25
 20
306
 11
267.25
 21
301
  0
LINE
  8
0
 10
267.25
 20
301
 11
287.25
 21
301
  0
LINE
  8
0
 10
287.25
 20
301
 11
287.25
 21
306
  0
LINE
  8
0
 10
287.25
 20
306
 11
338.75
 21
306
  0
LINE
  8
0
 10
338.75
 20
306
 11
338.75
 21
265.5
  0
LINE
  8
0
 10
338.75
 20
265.5
 11
333.75
 21
265.5
  0
LINE
  8
0
 10
333.75
 20
265.5
 11
333.75
 21
245.5
  0
LINE
  8
0
 10
333.75
 20
245.5
 11
338.75
 21
245.5
  0
LINE
  8
0
 10
338.75
 20
245.5
 11
338.75
 21
205
  0
LINE
  8
0
 10
338.75
 20
205
 11
287.25
 21
205
  0
LINE
  8
0
 10
287.25
 20
205
 11
287.25
 21
210
  0
LINE
  8
0
 10
287.25
 20
210
 11
267.25
 21
210
  0
LINE
  8
0
 10
267.25
 20
210
 11
267.25
 21
205
  0
LINE
  8
0
 10
267.25
 20
205
 11
215.75
 21
205
  0
LINE
  8
0
 10
378
 20
184
 11
194
 21
184
  0
LINE
  8
0
 10
194
 20
184
 11
194
 21
0
  0
LINE
  8
0
 10
194
 20
0
 11
378
 21
0
  0
LINE
  8
0
 10
378
 20
0
 11
378
 21
184
  0
LINE
  8
0
 10
218
 20
24
 11
218
 21
160
  0
LINE
  8
0
 10
218
 20
160
 11
354
 21
160
  0
LINE
  8
0
 10
354
 20
160
 11
354
 21
24
  0
LINE
  8
0
 10
354
 20
24
 11
218
 21
24
  0
LINE
  8
0
 10
184
 20
184
 11
0
 21
184
  0
LINE
  8
0
 10
0
 20
184
 11
0
 21
0
  0
LINE
  8
0
 10
0
 20
0
 11
184
 21
0
  0
LINE
  8
0
 10
184
 20
0
 11
184
 21
184
  0
LINE
  8
0
 10
90.7783
 20
22.0107
 11
89.557
 21
22.0426
  0
LINE
  8
0
 10
89.557
 20
22.0426
 11
88.3365
 21
22.0959
  0
LINE
  8
0
 10
88.3365
 20
22.0959
 11
87.1171
 21
22.1705
  0
LINE
  8
0
 10
87.1171
 20
22.1705
 11
85.8991
 21
22.2664
  0
LINE
  8
0
 10
85.8991
 20
22.2664
 11
84.683
 21
22.3835
  0
LINE
  8
0
 10
84.683
 20
22.3835
 11
83.4691
 21
22.5218
  0
LINE
  8
0
 10
83.4691
 20
22.5218
 11
82.2579
 21
22.6812
  0
LINE
  8
0
 10
82.2579
 20
22.6812
 11
81.0496
 21
22.8618
  0
LINE
  8
0
 10
81.0496
 20
22.8618
 11
79.8446
 21
23.0634
  0
LINE
  8
0
 10
79.8446
 20
23.0634
 11
78.6434
 21
23.2861
  0
LINE
  8
0
 10
78.6434
 20
23.2861
 11
77.4462
 21
23.5297
  0
LINE
  8
0
 10
77.4462
 20
23.5297
 11
76.2534
 21
23.7941
  0
LINE
  8
0
 10
76.2534
 20
23.7941
 11
75.0655
 21
24.0793
  0
LINE
  8
0
 10
75.0655
 20
24.0793
 11
73.8827
 21
24.3852
  0
LINE
  8
0
 10
73.8827
 20
24.3852
 11
72.7054
 21
24.7117
  0
LINE
  8
0
 10
72.7054
 20
24.7117
 11
71.534
 21
25.0587
  0
LINE
  8
0
 10
71.534
 20
25.0587
 11
70.3688
 21
25.426
  0
LINE
  8
0
 10
70.3688
 20
25.426
 11
69.2102
 21
25.8137
  0
LINE
  8
0
 10
69.2102
 20
25.8137
 11
68.0586
 21
26.2215
  0
LINE
  8
0
 10
68.0586
 20
26.2215
 11
66.9142
 21
26.6494
  0
LINE
  8
0
 10
66.9142
 20
26.6494
 11
65.7775
 21
27.0971
  0
LINE
  8
0
 10
65.7775
 20
27.0971
 11
64.6488
 21
27.5647
  0
LINE
  8
0
 10
64.6488
 20
27.5647
 11
63.5284
 21
28.0518
  0
LINE
  8
0
 10
63.5284
 20
28.0518
 11
62.4167
 21
28.5584
  0
LINE
  8
0
 10
62.4167
 20
28.5584
 11
61.314
 21
29.0844
  0
LINE
  8
0
 10
61.314
 20
29.0844
 11
60.2207
 21
29.6295
  0
LINE
  8
0
 10
60.2207
 20
29.6295
 11
59.137
 21
30.1937
  0
LINE
  8
0
 10
59.137
 20
30.1937
 11
58.0633
 21
30.7766
  0
LINE
  8
0
 10
58.0633
 20
30.7766
 11
57
 21
31.3782
  0
LINE
  8
0
 10
57
 20
31.3782
 11
55.9473
 21
31.9983
  0
LINE
  8
0
 10
55.9473
 20
31.9983
 11
54.9056
 21
32.6366
  0
LINE
  8
0
 10
54.9056
 20
32.6366
 11
53.8753
 21
33.2931
  0
LINE
  8
0
 10
53.8753
 20
33.2931
 11
52.8565
 21
33.9674
  0
LINE
  8
0
 10
52.8565
 20
33.9674
 11
51.8496
 21
34.6593
  0
LINE
  8
0
 10
51.8496
 20
34.6593
 11
50.855
 21
35.3688
  0
LINE
  8
0
 10
50.855
 20
35.3688
 11
49.8729
 21
36.0955
  0
LINE
  8
0
 10
49.8729
 20
36.0955
 11
48.9037
 21
36.8392
  0
LINE
  8
0
 10
48.9037
 20
36.8392
 11
47.9476
 21
37.5998
  0
LINE
  8
0
 10
47.9476
 20
37.5998
 11
47.0049
 21
38.3769
  0
LINE
  8
0
 10
47.0049
 20
38.3769
 11
46.0759
 21
39.1703
  0
LINE
  8
0
 10
46.0759
 20
39.1703
 11
45.1609
 21
39.9799
  0
LINE
  8
0
 10
45.1609
 20
39.9799
 11
44.2601
 21
40.8052
  0
LINE
  8
0
 10
44.2601
 20
40.8052
 11
43.3739
 21
41.6462
  0
LINE
  8
0
 10
43.3739
 20
41.6462
 11
42.5025
 21
42.5025
  0
LINE
  8
0
 10
42.5025
 20
42.5025
 11
41.6462
 21
43.3739
  0
LINE
  8
0
 10
41.6462
 20
43.3739
 11
40.8052
 21
44.2601
  0
LINE
  8
0
 10
40.8052
 20
44.2601
 11
39.9799
 21
45.1609
  0
LINE
  8
0
 10
39.9799
 20
45.1609
 11
39.1703
 21
46.0759
  0
LINE
  8
0
 10
39.1703
 20
46.0759
 11
38.3769
 21
47.0049
  0
LINE
  8
0
 10
38.3769
 20
47.0049
 11
37.5998
 21
47.9476
  0
LINE
  8
0
 10
37.5998
 20
47.9476
 11
36.8392
 21
48.9037
  0
LINE
  8
0
 10
36.8392
 20
48.9037
 11
36.0955
 21
49.8729
  0
LINE
  8
0
 10
36.0955
 20
49.8729
 11
35.3688
 21
50.855
  0
LINE
  8
0
 10
35.3688
 20
50.855
 11
34.6593
 21
51.8496
  0
LINE
  8
0
 10
34.6593
 20
51.8496
 11
33.9674
 21
52.8565
  0
LINE
  8
0
 10
33.9674
 20
52.8565
 11
33.2931
 21
53.8753
  0
LINE
  8
0
 10
33.2931
 20
53.8753
 11
32.6366
 21
54.9056
  0
LINE
  8
0
 10
32.6366
 20
54.9056
 11
31.9983
 21
55.9473
  0
LINE
  8
0
 10
31.9983
 20
55.9473
 11
31.3782
 21
57
  0
LINE
  8
0
 10
31.3782
 20
57
 11
30.7766
 21
58.0633
  0
LINE
  8
0
 10
30.7766
 20
58.0633
 11
30.1937
 21
59.137
  0
LINE
  8
0
 10
30.1937
 20
59.137
 11
29.6295
 21
60.2207
  0
LINE
  8
0
 10
29.6295
 20
60.2207
 11
29.0844
 21
61.314
  0
LINE
  8
0
 10
29.0844
 20
61.314
 11
28.5584
 21
62.4167
  0
LINE
  8
0
 10
28.5584
 20
62.4167
 11
28.0518
 21
63.5284
  0
LINE
  8
0
 10
28.0518
 20
63.5284
 11
27.5647
 21
64.6488
  0
LINE
  8
0
 10
27.5647
 20
64.6488
 11
27.0971
 21
65.7775
  0
LINE
  8
0
 10
27.0971
 20
65.7775
 11
26.6494
 21
66.9142
  0
LINE
  8
0
 10
26.6494
 20
66.9142
 11
26.2215
 21
68.0586
  0
LINE
  8
0
 10
26.2215
 20
68.0586
 11
25.8137
 21
69.2102
  0
LINE
  8
0
 10
25.8137
 20
69.2102
 11
25.426
 21
70.3688
  0
LINE
  8
0
 10
25.426
 20
70.3688
 11
25.0587
 21
71.534
  0
LINE
  8
0
 10
25.0587
 20
71.534
 11
24.7117
 21
72.7054
  0
LINE
  8
0
 10
24.7117
 20
72.7054
 11
24.3852
 21
73.8827
  0
LINE
  8
0
 10
24.3852
 20
73.8827
 11
24.0793
 21
75.0655
  0
LINE
  8
0
 10
24.0793
 20
75.0655
 11
23.7941
 21
76.2534
  0
LINE
  8
0
 10
23.7941
 20
76.2534
 11
23.5297
 21
77.4462
  0
LINE
  8
0
 10
23.5297
 20
77.4462
 11
23.2861
 21
78.6434
  0
LINE
  8
0
 10
23.2861
 20
78.6434
 11
23.0634
 21
79.8446
  0
LINE
  8
0
 10
23.0634
 20
79.8446
 11
22.8618
 21
81.0496
  0
LINE
  8
0
 10
22.8618
 20
81.0496
 11
22.6812
 21
82.2579
  0
LINE
  8
0
 10
22.6812
 20
82.2579
 11
22.5218
 21
83.4691
  0
LINE
  8
0
 10
22.5218
 20
83.4691
 11
22.3835
 21
84.683
  0
LINE
  8
0
 10
22.3835
 20
84.683
 11
22.2664
 21
85.8991
  0
LINE
  8
0
 10
22.2664
 20
85.8991
 11
22.1705
 21
87.1171
  0
LINE
  8
0
 10
22.1705
 20
87.1171
 11
22.0959
 21
88.3365
  0
LINE
  8
0
 10
22.0959
 20
88.3365
 11
22.0426
 21
89.557
  0
LINE
  8
0
 10
22.0426
 20
89.557
 11
22.0107
 21
90.7783
  0
LINE
  8
0
 10
22.0107
 20
90.7783
 11
22
 21
92
  0
LINE
  8
0
 10
22
 20
92
 11
22.0107
 21
93.2217
  0
LINE
  8
0
 10
22.0107
 20
93.2217
 11
22.0426
 21
94.443
  0
LINE
  8
0
 10
22.0426
 20
94.443
 11
22.0959
 21
95.6635
  0
LINE
  8
0
 10
22.0959
 20
95.6635
 11
22.1705
 21
96.8829
  0
LINE
  8
0
 10
22.1705
 20
96.8829
 11
22.2664
 21
98.1009
  0
LINE
  8
0
 10
22.2664
 20
98.1009
 11
22.3835
 21
99.317
  0
LINE
  8
0
 10
22.3835
 20
99.317
 11
22.5218
 21
100.531
  0
LINE
  8
0
 10
22.5218
 20
100.531
 11
22.6812
 21
101.742
  0
LINE
  8
0
 10
22.6812
 20
101.742
 11
22.8618
 21
102.95
  0
LINE
  8
0
 10
22.8618
 20
102.95
 11
23.0634
 21
104.155
  0
LINE
  8
0
 10
23.0634
 20
104.155
 11
23.2861
 21
105.357
  0
LINE
  8
0
 10
23.2861
 20
105.357
 11
23.5297
 21
106.554
  0
LINE
  8
0
 10
23.5297
 20
106.554
 11
23.7941
 21
107.747
  0
LINE
  8
0
 10
23.7941
 20
107.747
 11
24.0793
 21
108.935
  0
LINE
  8
0
 10
24.0793
 20
108.935
 11
24.3852
 21
110.117
  0
LINE
  8
0
 10
24.3852
 20
110.117
 11
24.7117
 21
111.295
  0
LINE
  8
0
 10
24.7117
 20
111.295
 11
25.0587
 21
112.466
  0
LINE
  8
0
 10
25.0587
 20
112.466
 11
25.426
 21
113.631
  0
LINE
  8
0
 10
25.426
 20
113.631
 11
25.8137
 21
114.79
  0
LINE
  8
0
 10
25.8137
 20
114.79
 11
26.2215
 21
115.941
  0
LINE
  8
0
 10
26.2215
 20
115.941
 11
26.6494
 21
117.086
  0
LINE
  8
0
 10
26.6494
 20
117.086
 11
27.0971
 21
118.222
  0
LINE
  8
0
 10
27.0971
 20
118.222
 11
27.5647
 21
119.351
  0
LINE
  8
0
 10
27.5647
 20
119.351
 11
28.0518
 21
120.472
  0
LINE
  8
0
 10
28.0518
 20
120.472
 11
28.5584
 21
121.583
  0
LINE
  8
0
 10
28.5584
 20
121.583
 11
29.0844
 21
122.686
  0
LINE
  8
0
 10
29.0844
 20
122.686
 11
29.6295
 21
123.779
  0
LINE
  8
0
 10
29.6295
 20
123.779
 11
30.1937
 21
124.863
  0
LINE
  8
0
 10
30.1937
 20
124.863
 11
30.7766
 21
125.937
  0
LINE
  8
0
 10
30.7766
 20
125.937
 11
31.3782
 21
127
  0
LINE
  8
0
 10
31.3782
 20
127
 11
31.9983
 21
128.053
  0
LINE
  8
0
 10
31.9983
 20
128.053
 11
32.6366
 21
129.094
  0
LINE
  8
0
 10
32.6366
 20
129.094
 11
33.2931
 21
130.125
  0
LINE
  8
0
 10
33.2931
 20
130.125
 11
33.9674
 21
131.144
  0
LINE
  8
0
 10
33.9674
 20
131.144
 11
34.6593
 21
132.15
  0
LINE
  8
0
 10
34.6593
 20
132.15
 11
35.3688
 21
133.145
  0
LINE
  8
0
 10
35.3688
 20
133.145
 11
36.0955
 21
134.127
  0
LINE
  8
0
 10
36.0955
 20
134.127
 11
36.8392
 21
135.096
  0
LINE
  8
0
 10
36.8392
 20
135.096
 11
37.5998
 21
136.052
  0
LINE
  8
0
 10
37.5998
 20
136.052
 11
38.3769
 21
136.995
  0
LINE
  8
0
 10
38.3769
 20
136.995
 11
39.1703
 21
137.924
  0
LINE
  8
0
 10
39.1703
 20
137.924
 11
39.9799
 21
138.839
  0
LINE
  8
0
 10
39.9799
 20
138.839
 11
40.8052
 21
139.74
  0
LINE
  8
0
 10
40.8052
 20
139.74
 11
41.6462
 21
140.626
  0
LINE
  8
0
 10
41.6462
 20
140.626
 11
42.5025
 21
141.497
  0
LINE
  8
0
 10
42.5025
 20
141.497
 11
43.3739
 21
142.354
  0
LINE
  8
0
 10
43.3739
 20
142.354
 11
44.2601
 21
143.195
  0
LINE
  8
0
 10
44.2601
 20
143.195
 11
45.1609
 21
144.02
  0
LINE
  8
0
 10
45.1609
 20
144.02
 11
46.0759
 21
144.83
  0
LINE
  8
0
 10
46.0759
 20
144.83
 11
47.0049
 21
145.623
  0
LINE
  8
0
 10
47.0049
 20
145.623
 11
47.9476
 21
146.4
  0
LINE
  8
0
 10
47.9476
 20
146.4
 11
48.9037
 21
147.161
  0
LINE
  8
0
 10
48.9037
 20
147.161
 11
49.8729
 21
147.904
  0
LINE
  8
0
 10
49.8729
 20
147.904
 11
50.855
 21
148.631
  0
LINE
  8
0
 10
50.855
 20
148.631
 11
51.8496
 21
149.341
  0
LINE
  8
0
 10
51.8496
 20
149.341
 11
52.8565
 21
150.033
  0
LINE
  8
0
 10
52.8565
 20
150.033
 11
53.8753
 21
150.707
  0
LINE
  8
0
 10
53.8753
 20
150.707
 11
54.9056
 21
151.363
  0
LINE
  8
0
 10
54.9056
 20
151.363
 11
55.9473
 21
152.002
  0
LINE
  8
0
 10
55.9473
 20
152.002
 11
57
 21
152.622
  0
LINE
  8
0
 10
57
 20
152.622
 11
58.0633
 21
153.223
  0
LINE
  8
0
 10
58.0633
 20
153.223
 11
59.137
 21
153.806
  0
LINE
  8
0
 10
59.137
 20
153.806
 11
60.2207
 21
154.37
  0
LINE
  8
0
 10
60.2207
 20
154.37
 11
61.314
 21
154.916
  0
LINE
  8
0
 10
61.314
 20
154.916
 11
62.4167
 21
155.442
  0
LINE
  8
0
 10
62.4167
 20
155.442
 11
63.5284
 21
155.948
  0
LINE
  8
0
 10
63.5284
 20
155.948
 11
64.6488
 21
156.435
  0
LINE
  8
0
 10
64.6488
 20
156.435
 11
65.7775
 21
156.903
  0
LINE
  8
0
 10
65.7775
 20
156.903
 11
66.9142
 21
157.351
  0
LINE
  8
0
 10
66.9142
 20
157.351
 11
68.0586
 21
157.778
  0
LINE
  8
0
 10
68.0586
 20
157.778
 11
69.2102
 21
158.186
  0
LINE
  8
0
 10
69.2102
 20
158.186
 11
70.3688
 21
158.574
  0
LINE
  8
0
 10
70.3688
 20
158.574
 11
71.534
 21
158.941
  0
LINE
  8
0
 10
71.534
 20
158.941
 11
72.7054
 21
159.288
  0
LINE
  8
0
 10
72.7054
 20
159.288
 11
73.8827
 21
159.615
  0
LINE
  8
0
 10
73.8827
 20
159.615
 11
75.0655
 21
159.921
  0
LINE
  8
0
 10
75.0655
 20
159.921
 11
76.2534
 21
160.206
  0
LINE
  8
0
 10
76.2534
 20
160.206
 11
77.4462
 21
160.47
  0
LINE
  8
0
 10
77.4462
 20
160.47
 11
78.6434
 21
160.714
  0
LINE
  8
0
 10
78.6434
 20
160.714
 11
79.8446
 21
160.937
  0
LINE
  8
0
 10
79.8446
 20
160.937
 11
81.0496
 21
161.138
  0
LINE
  8
0
 10
81.0496
 20
161.138
 11
82.2579
 21
161.319
  0
LINE
  8
0
 10
82.2579
 20
161.319
 11
83.4691
 21
161.478
  0
LINE
  8
0
 10
83.4691
 20
161.478
 11
84.683
 21
161.617
  0
LINE
  8
0
 10
84.683
 20
161.617
 11
85.8991
 21
161.734
  0
LINE
  8
0
 10
85.8991
 20
161.734
 11
87.1171
 21
161.829
  0
LINE
  8
0
 10
87.1171
 20
161.829
 11
88.3365
 21
161.904
  0
LINE
  8
0
 10
88.3365
 20
161.904
 11
89.557
 21
161.957
  0
LINE
  8
0
 10
89.557
 20
161.957
 11
90.7783
 21
161.989
  0
LINE
  8
0
 10
90.7783
 20
161.989
 11
92
 21
162
  0
LINE
  8
0
 10
92
 20
162
 11
93.2217
 21
161.989
  0
LINE
  8
0
 10
93.2217
 20
161.989
 11
94.443
 21
161.957
  0
LINE
  8
0
 10
94.443
 20
161.957
 11
95.6635
 21
161.904
  0
LINE
  8
0
 10
95.6635
 20
161.904
 11
96.8829
 21
161.829
  0
LINE
  8
0
 10
96.8829
 20
161.829
 11
98.1009
 21
161.734
  0
LINE
  8
0
 10
98.1009
 20
161.734
 11
99.317
 21
161.617
  0
LINE
  8
0
 10
99.317
 20
161.617
 11
100.531
 21
161.478
  0
LINE
  8
0
 10
100.531
 20
161.478
 11
101.742
 21
161.319
  0
LINE
  8
0
 10
101.742
 20
161.319
 11
102.95
 21
161.138
  0
LINE
  8
0
 10
102.95
 20
161.138
 11
104.155
 21
160.937
  0
LINE
  8
0
 10
104.155
 20
160.937
 11
105.357
 21
160.714
  0
LINE
  8
0
 10
105.357
 20
160.714
 11
106.554
 21
160.47
  0
LINE
  8
0
 10
106.554
 20
160.47
 11
107.747
 21
160.206
  0
LINE
  8
0
 10
107.747
 20
160.206
 11
108.935
 21
159.921
  0
LINE
  8
0
 10
108.935
 20
159.921
 11
110.117
 21
159.615
  0
LINE
  8
0
 10
110.117
 20
159.615
 11
111.295
 21
159.288
  0
LINE
  8
0
 10
111.295
 20
159.288
 11
112.466
 21
158.941
  0
LINE
  8
0
 10
112.466
 20
158.941
 11
113.631
 21
158.574
  0
LINE
  8
0
 10
113.631
 20
158.574
 11
114.79
 21
158.186
  0
LINE
  8
0
 10
114.79
 20
158.186
 11
115.941
 21
157.778
  0
LINE
  8
0
 10
115.941
 20
157.778
 11
117.086
 21
157.351
  0
LINE
  8
0
 10
117.086
 20
157.351
 11
118.222
 21
156.903
  0
LINE
  8
0
 10
118.222
 20
156.903
 11
119.351
 21
156.435
  0
LINE
  8
0
 10
119.351
 20
156.435
 11
120.472
 21
155.948
  0
LINE
  8
0
 10
120.472
 20
155.948
 11
121.583
 21
155.442
  0
LINE
  8
0
 10
121.583
 20
155.442
 11
122.686
 21
154.916
  0
LINE
  8
0
 10
122.686
 20
154.916
 11
123.779
 21
154.37
  0
LINE
  8
0
 10
123.779
 20
154.37
 11
124.863
 21
153.806
  0
LINE
  8
0
 10
124.863
 20
153.806
 11
125.937
 21
153.223
  0
LINE
  8
0
 10
125.937
 20
153.223
 11
127
 21
152.622
  0
LINE
  8
0
 10
127
 20
152.622
 11
128.053
 21
152.002
  0
LINE
  8
0
 10
128.053
 20
152.002
 11
129.094
 21
151.363
  0
LINE
  8
0
 10
129.094
 20
151.363
 11
130.125
 21
150.707
  0
LINE
  8
0
 10
130.125
 20
150.707
 11
131.144
 21
150.033
  0
LINE
  8
0
 10
131.144
 20
150.033
 11
132.15
 21
149.341
  0
LINE
  8
0
 10
132.15
 20
149.341
 11
133.145
 21
148.631
  0
LINE
  8
0
 10
133.145
 20
148.631
 11
134.127
 21
147.904
  0
LINE
  8
0
 10
134.127
 20
147.904
 11
135.096
 21
147.161
  0
LINE
  8
0
 10
135.096
 20
147.161
 11
136.052
 21
146.4
  0
LINE
  8
0
 10
136.052
 20
146.4
 11
136.995
 21
145.623
  0
LINE
  8
0
 10
136.995
 20
145.623
 11
137.924
 21
144.83
  0
LINE
  8
0
 10
137.924
 20
144.83
 11
138.839
 21
144.02
  0
LINE
  8
0
 10
138.839
 20
144.02
 11
139.74
 21
143.195
  0
LINE
  8
0
 10
139.74
 20
143.195
 11
140.626
 21
142.354
  0
LINE
  8
0
 10
140.626
 20
142.354
 11
141.497
 21
141.497
  0
LINE
  8
0
 10
141.497
 20
141.497
 11
142.354
 21
140.626
  0
LINE
  8
0
 10
142.354
 20
140.626
 11
143.195
 21
139.74
  0
LINE
  8
0
 10
143.195
 20
139.74
 11
144.02
 21
138.839
  0
LINE
  8
0
 10
144.02
 20
138.839
 11
144.83
 21
137.924
  0
LINE
  8
0
 10
144.83
 20
137.924
 11
145.623
 21
136.995
  0
LINE
  8
0
 10
145.623
 20
136.995
 11
146.4
 21
136.052
  0
LINE
  8
0
 10
146.4
 20
136.052
 11
147.161
 21
135.096
  0
LINE
  8
0
 10
147.161
 20
135.096
 11
147.904
 21
134.127
  0
LINE
  8
0
 10
147.904
 20
134.127
 11
148.631
 21
133.145
  0
LINE
  8
0
 10
148.631
 20
133.145
 11
149.341
 21
132.15
  0
LINE
  8
0
 10
149.341
 20
132.15
 11
150.033
 21
131.144
  0
LINE
  8
0
 10
150.033
 20
131.144
 11
150.707
 21
130.125
  0
LINE
  8
0
 10
150.707
 20
130.125
 11
151.363
 21
129.094
  0
LINE
  8
0
 10
151.363
 20
129.094
 11
152.002
 21
128.053
  0
LINE
  8
0
 10
152.002
 20
128.053
 11
152.622
 21
127
  0
LINE
  8
0
 10
152.622
 20
127
 11
153.223
 21
125.937
  0
LINE
  8
0
 10
153.223
 20
125.937
 11
153.806
 21
124.863
  0
LINE
  8
0
 10
153.806
 20
124.863
 11
154.37
 21
123.779
  0
LINE
  8
0
 10
154.37
 20
123.779
 11
154.916
 21
122.686
  0
LINE
  8
0
 10
154.916
 20
122.686
 11
155.442
 21
121.583
  0
LINE
  8
0
 10
155.442
 20
121.583
 11
155.948
 21
120.472
  0
LINE
  8
0
 10
155.948
 20
120.472
 11
156.435
 21
119.351
  0
LINE
  8
0
 10
156.435
 20
119.351
 11
156.903
 21
118.222
  0
LINE
  8
0
 10
156.903
 20
118.222
 11
157.351
 21
117.086
  0
LINE
  8
0
 10
157.351
 20
117.086
 11
157.778
 21
115.941
  0
LINE
  8
0
 10
157.778
 20
115.941
 11
158.186
 21
114.79
  0
LINE
  8
0
 10
158.186
 20
114.79
 11
158.574
 21
113.631
  0
LINE
  8
0
 10
158.574
 20
113.631
 11
158.941
 21
112.466
  0
LINE
  8
0
 10
158.941
 20
112.466
 11
159.288
 21
111.295
  0
LINE
  8
0
 10
159.288
 20
111.295
 11
159.615
 21
110.117
  0
LINE
  8
0
 10
159.615
 20
110.117
 11
159.921
 21
108.935
  0
LINE
  8
0
 10
159.921
 20
108.935
 11
160.206
 21
107.747
  0
LINE
  8
0
 10
160.206
 20
107.747
 11
160.47
 21
106.554
  0
LINE
  8
0
 10
160.47
 20
106.554
 11
160.714
 21
105.357
  0
LINE
  8
0
 10
160.714
 20
105.357
 11
160.937
 21
104.155
  0
LINE
  8
0
 10
160.937
 20
104.155
 11
161.138
 21
102.95
  0
LINE
  8
0
 10
161.138
 20
102.95
 11
161.319
 21
101.742
  0
LINE
  8
0
 10
161.319
 20
101.742
 11
161.478
 21
100.531
  0
LINE
  8
0
 10
161.478
 20
100.531
 11
161.617
 21
99.317
  0
LINE
  8
0
 10
161.617
 20
99.317
 11
161.734
 21
98.1009
  0
LINE
  8
0
 10
161.734
 20
98.1009
 11
161.829
 21
96.8829
  0
LINE
  8
0
 10
161.829
 20
96.8829
 11
161.904
 21
95.6635
  0
LINE
  8
0
 10
161.904
 20
95.6635
 11
161.957
 21
94.443
  0
LINE
  8
0
 10
161.957
 20
94.443
 11
161.989
 21
93.2217
  0
LINE
  8
0
 10
161.989
 20
93.2217
 11
162
 21
92
  0
LINE
  8
0
 10
162
 20
92
 11
161.989
 21
90.7783
  0
LINE
  8
0
 10
161.989
 20
90.7783
 11
161.957
 21
89.557
  0
LINE
  8
0
 10
161.957
 20
89.557
 11
161.904
 21
88.3365
  0
LINE
  8
0
 10
161.904
 20
88.3365
 11
161.829
 21
87.1171
  0
LINE
  8
0
 10
161.829
 20
87.1171
 11
161.734
 21
85.8991
  0
LINE
  8
0
 10
161.734
 20
85.8991
 11
161.617
 21
84.683
  0
LINE
  8
0
 10
161.617
 20
84.683
 11
161.478
 21
83.4691
  0
LINE
  8
0
 10
161.478
 20
83.4691
 11
161.319
 21
82.2579
  0
LINE
  8
0
 10
161.319
 20
82.2579
 11
161.138
 21
81.0496
  0
LINE
  8
0
 10
161.138
 20
81.0496
 11
160.937
 21
79.8446
  0
LINE
  8
0
 10
160.937
 20
79.8446
 11
160.714
 21
78.6434
  0
LINE
  8
0
 10
160.714
 20
78.6434
 11
160.47
 21
77.4462
  0
LINE
  8
0
 10
160.47
 20
77.4462
 11
160.206
 21
76.2534
  0
LINE
  8
0
 10
160.206
 20
76.2534
 11
159.921
 21
75.0655
  0
LINE
  8
0
 10
159.921
 20
75.0655
 11
159.615
 21
73.8827
  0
LINE
  8
0
 10
159.615
 20
73.8827
 11
159.288
 21
72.7054
  0
LINE
  8
0
 10
159.288
 20
72.7054
 11
158.941
 21
71.534
  0
LINE
  8
0
 10
158.941
 20
71.534
 11
158.574
 21
70.3688
  0
LINE
  8
0
 10
158.574
 20
70.3688
 11
158.186
 21
69.2102
  0
LINE
  8
0
 10
158.186
 20
69.2102
 11
157.778
 21
68.0586
  0
LINE
  8
0
 10
157.778
 20
68.0586
 11
157.351
 21
66.9142
  0
LINE
  8
0
 10
157.351
 20
66.9142
 11
156.903
 21
65.7775
  0
LINE
  8
0
 10
156.903
 20
65.7775
 11
156.435
 21
64.6488
  0
LINE
  8
0
 10
156.435
 20
64.6488
 11
155.948
 21
63.5284
  0
LINE
  8
0
 10
155.948
 20
63.5284
 11
155.442
 21
62.4167
  0
LINE
  8
0
 10
155.442
 20
62.4167
 11
154.916
 21
61.314
  0
LINE
  8
0
 10
154.916
 20
61.314
 11
154.37
 21
60.2207
  0
LINE
  8
0
 10
154.37
 20
60.2207
 11
153.806
 21
59.137
  0
LINE
  8
0
 10
153.806
 20
59.137
 11
153.223
 21
58.0633
  0
LINE
  8
0
 10
153.223
 20
58.0633
 11
152.622
 21
57
  0
LINE
  8
0
 10
152.622
 20
57
 11
152.002
 21
55.9473
  0
LINE
  8
0
 10
152.002
 20
55.9473
 11
151.363
 21
54.9056
  0
LINE
  8
0
 10
151.363
 20
54.9056
 11
150.707
 21
53.8753
  0
LINE
  8
0
 10
150.707
 20
53.8753
 11
150.033
 21
52.8565
  0
LINE
  8
0
 10
150.033
 20
52.8565
 11
149.341
 21
51.8496
  0
LINE
  8
0
 10
149.341
 20
51.8496
 11
148.631
 21
50.855
  0
LINE
  8
0
 10
148.631
 20
50.855
 11
147.904
 21
49.8729
  0
LINE
  8
0
 10
147.904
 20
49.8729
 11
147.161
 21
48.9037
  0
LINE
  8
0
 10
147.161
 20
48.9037
 11
146.4
 21
47.9476
  0
LINE
  8
0
 10
146.4
 20
47.9476
 11
145.623
 21
47.0049
  0
LINE
  8
0
 10
145.623
 20
47.0049
 11
144.83
 21
46.0759
  0
LINE
  8
0
 10
144.83
 20
46.0759
 11
144.02
 21
45.1609
  0
LINE
  8
0
 10
144.02
 20
45.1609
 11
143.195
 21
44.2601
  0
LINE
  8
0
 10
143.195
 20
44.2601
 11
142.354
 21
43.3739
  0
LINE
  8
0
 10
142.354
 20
43.3739
 11
141.497
 21
42.5025
  0
LINE
  8
0
 10
141.497
 20
42.5025
 11
140.626
 21
41.6462
  0
LINE
  8
0
 10
140.626
 20
41.6462
 11
139.74
 21
40.8052
  0
LINE
  8
0
 10
139.74
 20
40.8052
 11
138.839
 21
39.9799
  0
LINE
  8
0
 10
138.839
 20
39.9799
 11
137.924
 21
39.1703
  0
LINE
  8
0
 10
137.924
 20
39.1703
 11
136.995
 21
38.3769
  0
LINE
  8
0
 10
136.995
 20
38.3769
 11
136.052
 21
37.5998
  0
LINE
  8
0
 10
136.052
 20
37.5998
 11
135.096
 21
36.8392
  0
LINE
  8
0
 10
135.096
 20
36.8392
 11
134.127
 21
36.0955
  0
LINE
  8
0
 10
134.127
 20
36.0955
 11
133.145
 21
35.3688
  0
LINE
  8
0
 10
133.145
 20
35.3688
 11
132.15
 21
34.6593
  0
LINE
  8
0
 10
132.15
 20
34.6593
 11
131.144
 21
33.9674
  0
LINE
  8
0
 10
131.144
 20
33.9674
 11
130.125
 21
33.2931
  0
LINE
  8
0
 10
130.125
 20
33.2931
 11
129.094
 21
32.6366
  0
LINE
  8
0
 10
129.094
 20
32.6366
 11
128.053
 21
31.9983
  0
LINE
  8
0
 10
128.053
 20
31.9983
 11
127
 21
31.3782
  0
LINE
  8
0
 10
127
 20
31.3782
 11
125.937
 21
30.7766
  0
LINE
  8
0
 10
125.937
 20
30.7766
 11
124.863
 21
30.1937
  0
LINE
  8
0
 10
124.863
 20
30.1937
 11
123.779
 21
29.6295
  0
LINE
  8
0
 10
123.779
 20
29.6295
 11
122.686
 21
29.0844
  0
LINE
  8
0
 10
122.686
 20
29.0844
 11
121.583
 21
28.5584
  0
LINE
  8
0
 10
121.583
 20
28.5584
 11
120.472
 21
28.0518
  0
LINE
  8
0
 10
120.472
 20
28.0518
 11
119.351
 21
27.5647
  0
LINE
  8
0
 10
119.351
 20
27.5647
 11
118.222
 21
27.0971
  0
LINE
  8
0
 10
118.222
 20
27.0971
 11
117.086
 21
26.6494
  0
LINE
  8
0
 10
117.086
 20
26.6494
 11
115.941
 21
26.2215
  0
LINE
  8
0
 10
115.941
 20
26.2215
 11
114.79
 21
25.8137
  0
LINE
  8
0
 10
114.79
 20
25.8137
 11
113.631
 21
25.426
  0
LINE
  8
0
 10
113.631
 20
25.426
 11
112.466
 21
25.0587
  0
LINE
  8
0
 10
112.466
 20
25.0587
 11
111.295
 21
24.7117
  0
LINE
  8
0
 10
111.295
 20
24.7117
 11
110.117
 21
24.3852
  0
LINE
  8
0
 10
110.117
 20
24.3852
 11
108.935
 21
24.0793
  0
LINE
  8
0
 10
108.935
 20
24.0793
 11
107.747
 21
23.7941
  0
LINE
  8
0
 10
107.747
 20
23.7941
 11
106.554
 21
23.5297
  0
LINE
  8
0
 10
106.554
 20
23.5297
 11
105.357
 21
23.2861
  0
LINE
  8
0
 10
105.357
 20
23.2861
 11
104.155
 21
23.0634
  0
LINE
  8
0
 10
104.155
 20
23.0634
 11
102.95
 21
22.8618
  0
LINE
  8
0
 10
102.95
 20
22.8618
 11
101.742
 21
22.6812
  0
LINE
  8
0
 10
101.742
 20
22.6812
 11
100.531
 21
22.5218
  0
LINE
  8
0
 10
100.531
 20
22.5218
 11
99.317
 21
22.3835
  0
LINE
  8
0
 10
99.317
 20
22.3835
 11
98.1009
 21
22.2664
  0
LINE
  8
0
 10
98.1009
 20
22.2664
 11
96.8829
 21
22.1705
  0
LINE
  8
0
 10
96.8829
 20
22.1705
 11
95.6635
 21
22.0959
  0
LINE
  8
0
 10
95.6635
 20
22.0959
 11
94.443
 21
22.0426
  0
LINE
  8
0
 10
94.443
 20
22.0426
 11
93.2217
 21
22.0107
  0
LINE
  8
0
 10
93.2217
 20
22.0107
 11
92
 21
22
  0
LINE
  8
0
 10
92
 20
22
 11
90.7783
 21
22.0107
  0
ENDSEC
  0
SECTION
  2
OBJECTS
  0
DICTIONARY
  0
ENDSEC
  0
EOF
